<?xml version="1.0" encoding="UTF-8"?>
<!DOCTYPE svg PUBLIC "-//W3C//DTD SVG 1.1//EN" "http://www.w3.org/Graphics/SVG/1.1/DTD/svg11.dtd">
<svg xmlns="http://www.w3.org/2000/svg" version="1.1" width="512px" height="512px" style="shape-rendering:geometricPrecision; text-rendering:geometricPrecision; image-rendering:optimizeQuality; fill-rule:evenodd; clip-rule:evenodd" xmlns:xlink="http://www.w3.org/1999/xlink">
<g><path style="opacity:0.986" fill="#000000" d="M 511.5,355.5 C 511.5,364.833 511.5,374.167 511.5,383.5C 501.5,383.5 491.5,383.5 481.5,383.5C 481.856,375.762 481.356,368.095 480,360.5C 478.5,357.667 476.333,355.5 473.5,354C 460.833,353.333 448.167,353.333 435.5,354C 434.308,363.305 432.308,372.472 429.5,381.5C 446.002,380.276 460.169,385.276 472,396.5C 476.054,401.942 479.054,407.942 481,414.5C 482.198,424.13 482.698,433.796 482.5,443.5C 472.167,443.5 461.833,443.5 451.5,443.5C 451.666,437.158 451.5,430.825 451,424.5C 450.444,419.611 447.944,416.111 443.5,414C 434.149,413.168 424.816,413.335 415.5,414.5C 409.591,424.476 402.591,433.643 394.5,442C 437.547,439.884 456.88,460.384 452.5,503.5C 442.167,503.5 431.833,503.5 421.5,503.5C 421.666,497.158 421.5,490.825 421,484.5C 420.588,480.509 418.754,477.342 415.5,475C 404.427,473.854 393.26,473.354 382,473.5C 371.5,473.667 361,473.833 350.5,474C 336.505,480.553 321.838,484.887 306.5,487C 275.525,488.595 244.525,488.928 213.5,488C 194.947,486.612 177.281,481.945 160.5,474C 139.5,473.333 118.5,473.333 97.5,474C 94.6667,475.5 92.5,477.667 91,480.5C 89.6439,488.095 89.1439,495.762 89.5,503.5C 79.1667,503.5 68.8333,503.5 58.5,503.5C 54.12,460.384 73.4534,439.884 116.5,442C 108.409,433.643 101.409,424.476 95.5,414.5C 86.1845,413.335 76.8511,413.168 67.5,414C 63.0561,416.111 60.5561,419.611 60,424.5C 59.5005,430.825 59.3338,437.158 59.5,443.5C 49.1667,443.5 38.8333,443.5 28.5,443.5C 28.3018,433.796 28.8018,424.13 30,414.5C 34.8347,396.664 46.3347,386.164 64.5,383C 70.1667,382.667 75.8333,382.333 81.5,382C 78.4828,372.736 76.4828,363.236 75.5,353.5C 62.0679,353.037 48.7345,353.537 35.5,355C 32.2456,357.342 30.4123,360.509 30,364.5C 29.5005,370.825 29.3338,377.158 29.5,383.5C 19.5,383.5 9.5,383.5 -0.5,383.5C -0.5,373.833 -0.5,364.167 -0.5,354.5C 4.6518,336.852 16.3185,326.352 34.5,323C 47.8292,322.5 61.1625,322.333 74.5,322.5C 74.3335,310.495 74.5001,298.495 75,286.5C 80.3157,280.35 85.8157,274.35 91.5,268.5C 76.1739,254.676 60.6739,241.01 45,227.5C 44.6667,194.5 44.3333,161.5 44,128.5C 25.664,100.846 24.3306,72.5128 40,43.5C 59.1201,15.8249 85.6201,3.82488 119.5,7.5C 119.5,27.5 119.5,47.5 119.5,67.5C 139.5,67.5 159.5,67.5 179.5,67.5C 183.604,101.774 171.604,128.607 143.5,148C 121.65,159.751 98.9831,161.585 75.5,153.5C 75.3334,173.169 75.5,192.836 76,212.5C 87.5,222.667 99,232.833 110.5,243C 111.759,243.982 113.092,244.315 114.5,244C 122.284,235.594 129.95,227.094 137.5,218.5C 155.821,217.5 174.155,217.167 192.5,217.5C 192.5,202.5 192.5,187.5 192.5,172.5C 202.833,172.5 213.167,172.5 223.5,172.5C 223.5,187.5 223.5,202.5 223.5,217.5C 243.167,217.5 262.833,217.5 282.5,217.5C 282.5,202.5 282.5,187.5 282.5,172.5C 292.833,172.5 303.167,172.5 313.5,172.5C 313.5,187.5 313.5,202.5 313.5,217.5C 333.169,217.333 352.836,217.5 372.5,218C 381,227.167 389.5,236.333 398,245.5C 410.371,234.127 423.038,223.127 436,212.5C 436.667,192.167 436.667,171.833 436,151.5C 399.209,165.719 368.209,157.719 343,127.5C 331.123,109.3 326.29,89.2997 328.5,67.5C 348.5,67.5 368.5,67.5 388.5,67.5C 388.5,47.5 388.5,27.5 388.5,7.5C 427.807,3.39479 456.307,18.7281 474,53.5C 482.973,77.8466 480.973,101.18 468,123.5C 467.667,157.833 467.333,192.167 467,226.5C 450.993,240.343 435.159,254.343 419.5,268.5C 424.2,274.545 429.367,280.212 435,285.5C 435.5,297.829 435.667,310.162 435.5,322.5C 449.171,322.333 462.837,322.5 476.5,323C 495.123,326.46 506.79,337.293 511.5,355.5 Z"/></g>
</svg>
